<?xml version="1.0" encoding="UTF-8" standalone="no"?>
<!DOCTYPE svg PUBLIC "-//W3C//DTD SVG 1.1//EN" "http://www.w3.org/Graphics/SVG/1.1/DTD/svg11.dtd">
<svg width="100%" height="100%" viewBox="0 0 52 64" version="1.1" xmlns="http://www.w3.org/2000/svg" xmlns:xlink="http://www.w3.org/1999/xlink" xml:space="preserve" xmlns:serif="http://www.serif.com/" style="fill-rule:evenodd;clip-rule:evenodd;stroke-linejoin:round;stroke-miterlimit:1.41421;">
    <g transform="matrix(1,0,0,1,-618.906,-669.173)">
        <g transform="matrix(-1,-0,-0,1,1288.75,320.868)">
            <rect x="638.474" y="373.666" width="11.8" height="11.8" style="fill:rgb(32,164,157);"/>
        </g>
        <g transform="matrix(1,0,0,1,644.374,669.173)">
            <path d="M0,33.123C-6.119,33.123 -11.125,28.117 -11.125,21.998L-11.125,11.125C-11.125,5.006 -6.119,0 0,0C6.119,0 11.125,5.006 11.125,11.125L11.125,21.998C11.125,28.117 6.119,33.123 0,33.123" style="fill:rgb(32,164,157);fill-rule:nonzero;"/>
        </g>
        <g transform="matrix(1,0,0,1,633.249,669.173)">
            <path d="M0,11.125C0,5.006 5.006,0 11.125,0C17.244,0 22.25,5.006 22.25,11.125" style="fill:rgb(63,63,63);fill-rule:nonzero;"/>
        </g>
        <g transform="matrix(1,0,0,1,670.158,705.546)">
            <path d="M0,27L-51.252,27L-51.252,14.031C-51.252,6.314 -44.939,0 -37.222,0L-14.03,0C-6.313,0 0,6.314 0,14.031L0,27Z" style="fill:rgb(63,63,63);fill-rule:nonzero;"/>
        </g>
        <g transform="matrix(1,0,0,1,627.173,718.618)">
            <path d="M0,13.928L0,1.764C0,0.79 0.79,0 1.764,0C2.738,0 3.528,0.79 3.528,1.764L3.528,13.928L0,13.928Z" style="fill:rgb(32,164,157);fill-rule:nonzero;"/>
        </g>
        <g transform="matrix(1,0,0,1,658.364,718.618)">
            <path d="M0,13.928L0,1.764C0,0.79 0.79,0 1.764,0C2.738,0 3.528,0.79 3.528,1.764L3.528,13.928L0,13.928Z" style="fill:rgb(32,164,157);fill-rule:nonzero;"/>
        </g>
        <g transform="matrix(-1,-0,-0,1,1289.5,368.941)">
            <rect x="633.396" y="347.454" width="22.711" height="16.151" style="fill:rgb(243,242,241);"/>
        </g>
        <g transform="matrix(-1,-0,-0,1,1269.67,358.092)">
            <rect x="633.396" y="347.454" width="2.874" height="27" style="fill:rgb(243,242,241);"/>
        </g>
        <g transform="matrix(-1,-0,-0,1,1309.34,358.092)">
            <rect x="653.233" y="347.454" width="2.874" height="27" style="fill:rgb(243,242,241);"/>
        </g>
        <g transform="matrix(1,0,0,1,663.954,680.298)">
            <path d="M0,0C0,0.793 -0.643,1.437 -1.437,1.437L-36.967,1.437C-37.761,1.437 -38.404,0.793 -38.404,0C-38.404,-0.794 -37.761,-1.437 -36.967,-1.437L-1.437,-1.437C-0.643,-1.437 0,-0.794 0,0" style="fill:rgb(63,63,63);fill-rule:nonzero;"/>
        </g>
    </g>
</svg>
