<?xml version="1.0" encoding="UTF-8" standalone="no"?>
<!DOCTYPE svg PUBLIC "-//W3C//DTD SVG 1.1//EN" "http://www.w3.org/Graphics/SVG/1.1/DTD/svg11.dtd">
<svg width="100%" height="100%" viewBox="0 0 63 64" version="1.1" xmlns="http://www.w3.org/2000/svg" xmlns:xlink="http://www.w3.org/1999/xlink" xml:space="preserve" xmlns:serif="http://www.serif.com/" style="fill-rule:evenodd;clip-rule:evenodd;stroke-linecap:round;stroke-miterlimit:10;">
    <rect id="Artboard1" x="0" y="0" width="63" height="64" style="fill:none;"/>
    <clipPath id="_clip1">
        <rect id="Artboard11" serif:id="Artboard1" x="0" y="0" width="63" height="64"/>
    </clipPath>
    <g clip-path="url(#_clip1)">
        <g transform="matrix(1,0,0,1,-148.086,-761.683)">
            <g transform="matrix(1,0,0,1,167.219,821.19)">
                <path d="M0,-53.281C-10.103,-48.712 -17.133,-38.549 -17.133,-26.739C-17.133,-10.654 -4.094,2.385 11.991,2.385C28.075,2.385 41.114,-10.654 41.114,-26.739C41.114,-41.694 29.84,-54.01 15.329,-55.666" style="fill:none;stroke:rgb(63,63,63);stroke-width:2.5px;"/>
            </g>
            <g transform="matrix(1,0,0,1,163.735,774.615)">
                <path d="M0,-11.932L12.137,-9.092L3.61,0L0,-11.932Z" style="fill:rgb(63,63,63);fill-rule:nonzero;"/>
            </g>
            <g transform="matrix(1,0,0,1,184.416,791.519)">
                <path d="M0,3.205C0.888,7.244 -0.005,13.529 -5.842,15.391C-10.524,16.883 -17.407,13.2 -18.396,4.33C-19.318,-3.956 -12.569,-10.881 -9.513,-13.271C-8.992,-13.678 -8.216,-13.335 -8.196,-12.675C-8.155,-11.345 -7.804,-9.326 -6.389,-7.127C-4.529,-4.238 -1.012,-1.401 0,3.205" style="fill:white;fill-rule:nonzero;"/>
            </g>
            <g transform="matrix(1,0,0,1,179.988,807.202)">
                <path d="M0,-10.381C-2.813,-8.403 -5.796,-4.049 -3.264,0.37C-1.232,3.916 5.056,5.524 10.645,0.642C15.865,-3.919 15.617,-11.955 15.087,-15.137C14.997,-15.679 14.328,-15.905 13.945,-15.511C13.173,-14.719 11.823,-13.679 9.72,-13.126C6.958,-12.4 3.208,-12.636 0,-10.381" style="fill:rgb(32,164,157);fill-rule:nonzero;"/>
            </g>
            <g transform="matrix(-0.863833,0.503778,0.503778,0.863833,179.17,810.21)">
                <path d="M-9.998,-2.702C-9.998,-2.702 -5.838,-0.707 0.73,-2.703" style="fill:none;stroke:rgb(63,63,63);stroke-width:2.13px;"/>
            </g>
        </g>
    </g>
</svg>
