<?xml version="1.0" encoding="UTF-8" standalone="no"?>
<!DOCTYPE svg PUBLIC "-//W3C//DTD SVG 1.1//EN" "http://www.w3.org/Graphics/SVG/1.1/DTD/svg11.dtd">
<svg width="100%" height="100%" viewBox="0 0 52 56" version="1.1" xmlns="http://www.w3.org/2000/svg" xmlns:xlink="http://www.w3.org/1999/xlink" xml:space="preserve" xmlns:serif="http://www.serif.com/" style="fill-rule:evenodd;clip-rule:evenodd;stroke-linejoin:round;stroke-miterlimit:1.41421;">
    <g transform="matrix(1,0,0,1,-162.297,-571.424)">
        <g>
            <clipPath id="_clip1">
                <rect x="159.333" y="570.758" width="31.285" height="56.367" clip-rule="nonzero"/>
            </clipPath>
            <g clip-path="url(#_clip1)">
                <g transform="matrix(1,0,0,1,195.609,619.886)">
                    <path d="M0,-38.943L3.808,-39.895L6.664,-38.943L11.423,-37.991L14.279,-39.895C15.873,-38.226 17.249,-36.361 18.372,-34.345L18.086,-34.183L12.375,-32.28L6.664,-33.232L4.76,-36.087L-0.952,-36.087L-3.808,-33.232L-2.855,-26.568L3.808,-23.713L7.615,-24.664L10.471,-22.761L10.471,-18.953L12.375,-15.145L14.279,-11.338L14.279,-7.53L16.849,-4.96C8.058,7.497 -9.167,10.468 -21.623,1.677C-32.201,-5.79 -36.169,-19.605 -31.166,-31.547L-29.509,-26.568L-26.653,-24.665L-23.797,-22.761L-25.702,-20.857L-25.702,-18.001L-23.798,-14.193L-19.038,-13.242L-19.038,-3.723L-17.134,1.037L-14.279,1.989L-14.279,-2.771L-10.471,-5.626L-10.471,-8.482L-6.663,-12.29L-5.711,-17.049L-9.519,-17.049L-12.375,-21.809L-19.038,-21.809L-20.942,-25.617L-23.798,-22.761L-23.798,-26.568L-25.702,-28.472L-25.702,-31.328L-19.038,-32.28L-14.279,-35.136L-11.423,-39.895L-8.567,-40.847L-7.615,-43.703L-13.327,-44.655L-16.03,-46.463C-8.71,-49.411 -0.478,-49.086 6.587,-45.568L2.856,-43.703L-0.952,-43.703L-2.855,-39.895L0,-38.943Z" style="fill:rgb(32,164,157);fill-rule:nonzero;"/>
                </g>
                <g transform="matrix(1,0,0,1,187.994,594.365)">
                    <path d="M0,-18.181L-0.952,-15.325L-3.808,-14.373L-6.664,-9.614L-11.423,-6.758L-18.086,-5.806L-18.086,-2.951L-16.183,-1.047L-16.183,2.761L-19.038,0.857L-21.894,-1.047L-23.55,-6.025C-20.699,-12.819 -15.25,-18.19 -8.415,-20.942L-5.711,-19.133L0,-18.181Z" style="fill:rgb(63,63,63);fill-rule:nonzero;"/>
                </g>
                <g transform="matrix(1,0,0,1,189.898,613.308)">
                    <path d="M0,-10.471L-0.952,-5.711L-4.759,-1.904L-4.759,0.952L-8.567,3.808L-8.567,8.567L-11.423,7.615L-13.327,2.856L-13.327,-6.663L-18.086,-7.615L-19.99,-11.423L-19.99,-14.279L-18.086,-16.182L-15.23,-19.038L-13.327,-15.231L-6.664,-15.231L-3.808,-10.471L0,-10.471Z" style="fill:rgb(63,63,63);fill-rule:nonzero;"/>
                </g>
            </g>
        </g>
        <g transform="matrix(1,0,0,1,200.458,571.573)">
            <path d="M0,55.043C-2.127,55.043 -4.159,54.135 -5.576,52.551C-8.324,49.478 -8.06,44.742 -4.988,41.994L-4.474,41.535L-4.474,4.471C-4.474,2.006 -2.468,0 -0.003,0C2.462,0 4.467,2.006 4.467,4.471L4.467,41.536L4.982,41.995C5.187,42.178 5.384,42.376 5.568,42.581C8.317,45.655 8.054,50.391 4.981,53.139C3.608,54.367 1.84,55.043 0.001,55.043L0,55.043Z" style="fill:rgb(32,164,157);fill-rule:nonzero;"/>
        </g>
        <g transform="matrix(1,0,0,1,202.459,584.329)">
            <path d="M0,30.211L0,-8.284C0,-9.392 -0.897,-10.289 -2.004,-10.289C-3.11,-10.289 -4.007,-9.392 -4.007,-8.284L-4.007,30.211C-6.543,31.317 -7.702,34.271 -6.595,36.806C-5.488,39.342 -2.536,40.5 0,39.394C2.536,38.287 3.694,35.334 2.587,32.799C2.082,31.64 1.158,30.716 0,30.211" style="fill:white;fill-rule:nonzero;"/>
        </g>
        <g transform="matrix(1,0,0,1,200.455,593.654)">
            <path d="M0,30.482C2.767,30.476 5.005,28.229 4.999,25.462C4.995,23.478 3.82,21.683 2.004,20.886L2.003,0L-2.004,0L-2.003,20.886C-4.537,21.998 -5.689,24.953 -4.576,27.486C-3.779,29.303 -1.984,30.478 0,30.482" style="fill:rgb(63,63,63);fill-rule:nonzero;"/>
        </g>
        <g transform="matrix(1,0,0,1,208.452,608.771)">
            <path d="M0,-1.825L0.913,-1.825C1.417,-1.825 1.825,-1.416 1.825,-0.912C1.825,-0.408 1.417,0 0.913,0L0,0C-0.504,0 -0.913,-0.408 -0.913,-0.912C-0.913,-1.416 -0.504,-1.825 0,-1.825" style="fill:white;fill-rule:nonzero;"/>
        </g>
        <g transform="matrix(1,0,0,1,208.452,603.296)">
            <path d="M0,-1.825L3.65,-1.825C4.154,-1.825 4.563,-1.416 4.563,-0.912C4.563,-0.408 4.154,0 3.65,0L0,0C-0.504,0 -0.913,-0.408 -0.913,-0.912C-0.913,-1.416 -0.504,-1.825 0,-1.825" style="fill:white;fill-rule:nonzero;"/>
        </g>
        <g transform="matrix(1,0,0,1,208.452,597.82)">
            <path d="M0,-1.825L0.913,-1.825C1.417,-1.825 1.825,-1.416 1.825,-0.912C1.825,-0.408 1.417,0 0.913,0L0,0C-0.504,0 -0.913,-0.408 -0.913,-0.912C-0.913,-1.416 -0.504,-1.825 0,-1.825" style="fill:white;fill-rule:nonzero;"/>
        </g>
        <g transform="matrix(1,0,0,1,208.452,592.344)">
            <path d="M0,-1.825L3.65,-1.825C4.154,-1.825 4.563,-1.416 4.563,-0.912C4.563,-0.408 4.154,0 3.65,0L0,0C-0.504,0 -0.913,-0.408 -0.913,-0.912C-0.913,-1.416 -0.504,-1.825 0,-1.825" style="fill:white;fill-rule:nonzero;"/>
        </g>
        <g transform="matrix(1,0,0,1,208.452,586.869)">
            <path d="M0,-1.825L0.913,-1.825C1.417,-1.825 1.825,-1.417 1.825,-0.912C1.825,-0.408 1.417,0 0.913,0L0,0C-0.504,0 -0.913,-0.408 -0.913,-0.912C-0.913,-1.417 -0.504,-1.825 0,-1.825" style="fill:white;fill-rule:nonzero;"/>
        </g>
        <g transform="matrix(1,0,0,1,208.452,581.393)">
            <path d="M0,-1.825L3.65,-1.825C4.154,-1.825 4.563,-1.417 4.563,-0.912C4.563,-0.408 4.154,0 3.65,0L0,0C-0.504,0 -0.913,-0.408 -0.913,-0.912C-0.913,-1.417 -0.504,-1.825 0,-1.825" style="fill:white;fill-rule:nonzero;"/>
        </g>
    </g>
</svg>
