<?xml version="1.0" encoding="UTF-8" standalone="no"?>
<!DOCTYPE svg PUBLIC "-//W3C//DTD SVG 1.1//EN" "http://www.w3.org/Graphics/SVG/1.1/DTD/svg11.dtd">
<svg width="100%" height="100%" viewBox="0 0 105 71" version="1.1" xmlns="http://www.w3.org/2000/svg" xmlns:xlink="http://www.w3.org/1999/xlink" xml:space="preserve" xmlns:serif="http://www.serif.com/" style="fill-rule:evenodd;clip-rule:evenodd;stroke-linejoin:round;stroke-miterlimit:1.41421;">
    <g transform="matrix(1,0,0,1,-138.175,-357.116)">
        <g transform="matrix(1,0,0,1,190.664,427.322)">
            <path d="M0,-4.083L2.789,-4.004L2.834,-0.888C2.835,-0.877 2.835,-0.867 2.834,-0.856C2.828,-0.676 2.716,-0.497 2.495,-0.353C1.99,-0.025 1.019,0 0.437,-0.297C0.117,-0.46 -0.046,-0.687 -0.045,-0.912L0,-4.083Z" style="fill:rgb(63,63,63);fill-rule:nonzero;"/>
        </g>
        <g transform="matrix(1,0,0,1,192.972,423.876)">
            <path d="M0,-1.187C0.327,-1.02 0.49,-0.788 0.481,-0.558C0.475,-0.378 0.362,-0.199 0.141,-0.056C-0.363,0.272 -1.244,0.297 -1.826,0C-2.408,-0.297 -2.472,-0.804 -1.968,-1.131C-1.463,-1.459 -0.583,-1.484 0,-1.187" style="fill:rgb(243,242,241);fill-rule:nonzero;"/>
        </g>
        <g transform="matrix(1,0,0,1,191.058,423.974)">
            <path d="M0,-42.059L2.002,-41.987L2.274,-0.81C2.274,-0.801 2.274,-0.791 2.274,-0.782C2.269,-0.617 2.166,-0.454 1.964,-0.322C1.503,-0.023 0.699,0 0.168,-0.271C-0.124,-0.42 -0.273,-0.627 -0.272,-0.832L0,-42.059Z" style="fill:rgb(32,164,157);fill-rule:nonzero;"/>
        </g>
        <g transform="matrix(1,0,0,1,196.421,392.533)">
            <path d="M0,-11.232C2.426,-8.438 7.831,-1.71 8.015,-1.526C8.199,-1.342 8.128,-0.629 8.015,-0.391C7.829,0 -0.221,-6.747 -0.735,-7.629C-1.25,-8.511 -1.25,-10.607 -1.25,-10.607L0,-11.232Z" style="fill:rgb(63,63,63);fill-rule:nonzero;"/>
        </g>
        <g transform="matrix(1,0,0,1,194.251,357.67)">
            <path d="M0,20.885C3.012,10.577 7.548,-0.554 7.744,-0.554C7.939,-0.554 8.368,-0.223 8.6,0.009C8.833,0.242 3.85,16.519 3.56,17.339C3.271,18.159 1.775,20.33 1.197,21.439L0,20.885Z" style="fill:rgb(63,63,63);fill-rule:nonzero;"/>
        </g>
        <g transform="matrix(1,0,0,1,184.951,379.954)">
            <path d="M0,-3.368C0,-4.354 0.653,-5.528 1.393,-5.955C1.711,-6.139 2.177,-6.131 2.407,-6.015L9.466,-1.743L8.1,1.497C8.1,1.497 6.286,2.771 3.524,1.098C1.137,-0.349 0,-2.38 0,-2.38L0,-3.368Z" style="fill:rgb(32,164,157);fill-rule:nonzero;"/>
        </g>
        <g transform="matrix(-2.30298,-0,-0,-2.30298,194.77,380.007)">
            <path d="M0.5,0.766C0.776,0.607 1,0.179 1,-0.189C1,-0.557 0.776,-0.727 0.5,-0.567C0.224,-0.408 0,0.02 0,0.389C0,0.663 0.124,0.826 0.302,0.826C0.363,0.826 0.43,0.807 0.5,0.766Z" style="fill:url(#_Linear1);fill-rule:nonzero;"/>
        </g>
        <g transform="matrix(1,0,0,1,192.527,379.996)">
            <path d="M0,0.473C0,-0.375 0.516,-1.36 1.151,-1.727C1.443,-1.895 1.708,-1.903 1.911,-1.782L1.911,-1.783L3.641,-0.767L2.07,2.376L0.479,1.442L0.479,1.441C0.189,1.329 0,0.986 0,0.473" style="fill:rgb(63,63,63);fill-rule:nonzero;"/>
        </g>
        <g transform="matrix(-2.30298,-0,-0,-2.30298,196.604,381.073)">
            <path d="M0.5,0.765C0.776,0.606 1,0.178 1,-0.19C1,-0.558 0.776,-0.727 0.5,-0.568C0.224,-0.408 0,0.019 0,0.387C0,0.662 0.124,0.826 0.302,0.826C0.363,0.826 0.429,0.806 0.5,0.765Z" style="fill:url(#_Linear2);fill-rule:nonzero;"/>
        </g>
        <g transform="matrix(1,0,0,1,196.841,381.572)">
            <path d="M0,-1.65C0.425,-0.641 -0.114,0.946 -1.663,0.946C-1.994,0.946 -2.437,0.847 -2.437,-0.007C-2.437,-0.862 -1.917,-1.855 -1.276,-2.226C-0.635,-2.596 -0.152,-2.012 0,-1.65" style="fill:rgb(243,242,241);fill-rule:nonzero;"/>
        </g>
        <g transform="matrix(1,0,0,1,193.824,390.432)">
            <path d="M0,-8.636C-2.368,-7.203 -16.483,1.709 -16.483,1.709C-16.483,1.709 -16.646,1.718 -16.7,1.709C-16.977,1.661 -17.517,1.418 -17.709,1.213C-17.732,1.188 -17.761,1.086 -17.761,1.086C-17.761,1.086 -9.283,-6.139 -5.422,-8.387C-2.914,-9.847 -1.13,-10.14 -0.671,-10.215C0.177,-10.354 0,-8.636 0,-8.636" style="fill:rgb(63,63,63);fill-rule:nonzero;"/>
        </g>
        <g transform="matrix(1,0,0,1,152.777,427.322)">
            <path d="M0,-4.083L2.789,-4.004L2.834,-0.888C2.834,-0.877 2.834,-0.867 2.834,-0.856C2.828,-0.676 2.716,-0.497 2.494,-0.353C1.99,-0.025 1.019,0 0.437,-0.297C0.117,-0.46 -0.047,-0.687 -0.045,-0.912L0,-4.083Z" style="fill:rgb(63,63,63);fill-rule:nonzero;"/>
        </g>
        <g transform="matrix(1,0,0,1,155.084,423.876)">
            <path d="M0,-1.187C0.327,-1.02 0.49,-0.788 0.481,-0.558C0.475,-0.378 0.362,-0.199 0.141,-0.056C-0.363,0.272 -1.244,0.297 -1.826,0C-2.408,-0.297 -2.472,-0.804 -1.967,-1.131C-1.463,-1.459 -0.582,-1.484 0,-1.187" style="fill:rgb(243,242,241);fill-rule:nonzero;"/>
        </g>
        <g transform="matrix(1,0,0,1,153.17,423.974)">
            <path d="M0,-42.059L2.002,-41.987L2.274,-0.81L2.274,-0.782C2.268,-0.617 2.166,-0.454 1.963,-0.322C1.503,-0.023 0.699,0 0.167,-0.271C-0.124,-0.42 -0.273,-0.627 -0.272,-0.832L0,-42.059Z" style="fill:rgb(32,164,157);fill-rule:nonzero;"/>
        </g>
        <g transform="matrix(1,0,0,1,158.534,392.533)">
            <path d="M0,-11.232C2.427,-8.438 7.831,-1.71 8.015,-1.526C8.199,-1.342 8.128,-0.629 8.015,-0.391C7.829,0 -0.22,-6.747 -0.735,-7.629C-1.25,-8.511 -1.25,-10.607 -1.25,-10.607L0,-11.232Z" style="fill:rgb(63,63,63);fill-rule:nonzero;"/>
        </g>
        <g transform="matrix(1,0,0,1,156.364,357.67)">
            <path d="M0,20.885C3.012,10.577 7.548,-0.554 7.744,-0.554C7.939,-0.554 8.368,-0.223 8.6,0.009C8.833,0.242 3.849,16.519 3.56,17.339C3.271,18.159 1.775,20.33 1.196,21.439L0,20.885Z" style="fill:rgb(63,63,63);fill-rule:nonzero;"/>
        </g>
        <g transform="matrix(1,0,0,1,147.064,379.954)">
            <path d="M0,-3.368C0,-4.354 0.652,-5.528 1.392,-5.955C1.711,-6.139 2.177,-6.131 2.407,-6.015L9.465,-1.743L8.1,1.497C8.1,1.497 6.286,2.771 3.524,1.098C1.137,-0.349 0,-2.38 0,-2.38L0,-3.368Z" style="fill:rgb(32,164,157);fill-rule:nonzero;"/>
        </g>
        <g transform="matrix(-2.30298,-0,-0,-2.30298,156.882,380.007)">
            <path d="M0.5,0.766C0.777,0.607 1,0.179 1,-0.189C1,-0.557 0.777,-0.727 0.5,-0.567C0.224,-0.408 0,0.02 0,0.389C0,0.663 0.124,0.826 0.302,0.826C0.362,0.826 0.43,0.807 0.5,0.766Z" style="fill:url(#_Linear3);fill-rule:nonzero;"/>
        </g>
        <g transform="matrix(1,0,0,1,154.64,379.996)">
            <path d="M0,0.473C0,-0.375 0.515,-1.36 1.151,-1.727C1.442,-1.895 1.708,-1.903 1.911,-1.782L1.911,-1.783L3.641,-0.767L2.069,2.376L0.478,1.442L0.479,1.441C0.189,1.329 0,0.986 0,0.473" style="fill:rgb(63,63,63);fill-rule:nonzero;"/>
        </g>
        <g transform="matrix(-2.30298,-0,-0,-2.30298,158.717,381.073)">
            <path d="M0.5,0.765C0.776,0.606 1,0.178 1,-0.19C1,-0.558 0.776,-0.727 0.5,-0.568C0.224,-0.408 0,0.019 0,0.387C0,0.662 0.124,0.826 0.302,0.826C0.362,0.826 0.43,0.806 0.5,0.765Z" style="fill:url(#_Linear4);fill-rule:nonzero;"/>
        </g>
        <g transform="matrix(1,0,0,1,158.954,381.572)">
            <path d="M0,-1.65C0.425,-0.641 -0.114,0.946 -1.663,0.946C-1.995,0.946 -2.437,0.847 -2.437,-0.007C-2.437,-0.862 -1.917,-1.855 -1.276,-2.226C-0.635,-2.596 -0.153,-2.012 0,-1.65" style="fill:rgb(243,242,241);fill-rule:nonzero;"/>
        </g>
        <g transform="matrix(1,0,0,1,155.937,390.432)">
            <path d="M0,-8.636C-2.368,-7.203 -16.483,1.709 -16.483,1.709C-16.483,1.709 -16.647,1.718 -16.7,1.709C-16.978,1.661 -17.517,1.418 -17.709,1.213C-17.732,1.188 -17.762,1.086 -17.762,1.086C-17.762,1.086 -9.283,-6.139 -5.422,-8.387C-2.914,-9.847 -1.131,-10.14 -0.671,-10.215C0.177,-10.354 0,-8.636 0,-8.636" style="fill:rgb(63,63,63);fill-rule:nonzero;"/>
        </g>
        <g transform="matrix(1,0,0,1,228.554,427.322)">
            <path d="M0,-4.083L2.789,-4.004L2.834,-0.888L2.834,-0.856C2.828,-0.676 2.716,-0.497 2.494,-0.353C1.99,-0.025 1.019,0 0.437,-0.297C0.117,-0.46 -0.047,-0.687 -0.045,-0.912L0,-4.083Z" style="fill:rgb(63,63,63);fill-rule:nonzero;"/>
        </g>
        <g transform="matrix(1,0,0,1,230.862,423.876)">
            <path d="M0,-1.187C0.327,-1.02 0.49,-0.788 0.481,-0.558C0.475,-0.378 0.362,-0.199 0.141,-0.056C-0.363,0.272 -1.244,0.297 -1.826,0C-2.408,-0.297 -2.471,-0.804 -1.967,-1.131C-1.463,-1.459 -0.582,-1.484 0,-1.187" style="fill:rgb(243,242,241);fill-rule:nonzero;"/>
        </g>
        <g transform="matrix(1,0,0,1,228.948,423.974)">
            <path d="M0,-42.059L2.002,-41.987L2.274,-0.81C2.274,-0.801 2.274,-0.791 2.274,-0.782C2.268,-0.617 2.166,-0.454 1.963,-0.322C1.503,-0.023 0.699,0 0.168,-0.271C-0.124,-0.42 -0.273,-0.627 -0.272,-0.832L0,-42.059Z" style="fill:rgb(32,164,157);fill-rule:nonzero;"/>
        </g>
        <g transform="matrix(1,0,0,1,234.311,392.533)">
            <path d="M0,-11.232C2.426,-8.438 7.831,-1.71 8.015,-1.526C8.198,-1.342 8.128,-0.629 8.015,-0.391C7.828,0 -0.221,-6.747 -0.735,-7.629C-1.25,-8.511 -1.25,-10.607 -1.25,-10.607L0,-11.232Z" style="fill:rgb(63,63,63);fill-rule:nonzero;"/>
        </g>
        <g transform="matrix(1,0,0,1,232.142,357.67)">
            <path d="M0,20.885C3.012,10.577 7.548,-0.554 7.744,-0.554C7.939,-0.554 8.368,-0.223 8.6,0.009C8.833,0.242 3.85,16.519 3.56,17.339C3.271,18.159 1.775,20.33 1.196,21.439L0,20.885Z" style="fill:rgb(63,63,63);fill-rule:nonzero;"/>
        </g>
        <g transform="matrix(1,0,0,1,222.841,379.954)">
            <path d="M0,-3.368C0,-4.354 0.653,-5.528 1.392,-5.955C1.711,-6.139 2.177,-6.131 2.407,-6.015L9.466,-1.743L8.1,1.497C8.1,1.497 6.286,2.771 3.524,1.098C1.137,-0.349 0,-2.38 0,-2.38L0,-3.368Z" style="fill:rgb(32,164,157);fill-rule:nonzero;"/>
        </g>
        <g transform="matrix(-2.30298,-0,-0,-2.30298,232.66,380.007)">
            <path d="M0.5,0.766C0.776,0.607 1,0.179 1,-0.189C1,-0.557 0.776,-0.727 0.5,-0.567C0.224,-0.408 0,0.02 0,0.389C0,0.663 0.124,0.826 0.302,0.826C0.363,0.826 0.43,0.807 0.5,0.766Z" style="fill:url(#_Linear5);fill-rule:nonzero;"/>
        </g>
        <g transform="matrix(1,0,0,1,230.417,379.996)">
            <path d="M0,0.473C0,-0.375 0.515,-1.36 1.151,-1.727C1.442,-1.895 1.708,-1.903 1.911,-1.782L1.911,-1.783L3.641,-0.767L2.069,2.376L0.478,1.442L0.479,1.441C0.189,1.329 0,0.986 0,0.473" style="fill:rgb(63,63,63);fill-rule:nonzero;"/>
        </g>
        <g transform="matrix(-2.30298,-0,-0,-2.30298,234.494,381.073)">
            <path d="M0.5,0.765C0.776,0.606 1,0.178 1,-0.19C1,-0.558 0.776,-0.727 0.5,-0.568C0.224,-0.408 0,0.019 0,0.387C0,0.662 0.124,0.826 0.302,0.826C0.363,0.826 0.429,0.806 0.5,0.765Z" style="fill:url(#_Linear6);fill-rule:nonzero;"/>
        </g>
        <g transform="matrix(1,0,0,1,234.731,381.572)">
            <path d="M0,-1.65C0.425,-0.641 -0.114,0.946 -1.663,0.946C-1.995,0.946 -2.437,0.847 -2.437,-0.007C-2.437,-0.862 -1.917,-1.855 -1.276,-2.226C-0.635,-2.596 -0.153,-2.012 0,-1.65" style="fill:rgb(243,242,241);fill-rule:nonzero;"/>
        </g>
        <g transform="matrix(1,0,0,1,231.714,390.432)">
            <path d="M0,-8.636C-2.368,-7.203 -16.483,1.709 -16.483,1.709C-16.483,1.709 -16.647,1.718 -16.7,1.709C-16.977,1.661 -17.517,1.418 -17.709,1.213C-17.732,1.188 -17.762,1.086 -17.762,1.086C-17.762,1.086 -9.283,-6.139 -5.422,-8.387C-2.914,-9.847 -1.131,-10.14 -0.671,-10.215C0.177,-10.354 0,-8.636 0,-8.636" style="fill:rgb(63,63,63);fill-rule:nonzero;"/>
        </g>
    </g>
    <defs>
        <linearGradient id="_Linear1" x1="0" y1="0" x2="1" y2="0" gradientUnits="userSpaceOnUse" gradientTransform="matrix(1,0,0,-1,0,0.0997309)"><stop offset="0" style="stop-color:rgb(11,21,33);stop-opacity:1"/><stop offset="1" style="stop-color:rgb(0,171,163);stop-opacity:1"/></linearGradient>
        <linearGradient id="_Linear2" x1="0" y1="0" x2="1" y2="0" gradientUnits="userSpaceOnUse" gradientTransform="matrix(1,0,0,-1,0,0.0989214)"><stop offset="0" style="stop-color:rgb(11,21,33);stop-opacity:1"/><stop offset="1" style="stop-color:rgb(0,171,163);stop-opacity:1"/></linearGradient>
        <linearGradient id="_Linear3" x1="0" y1="0" x2="1" y2="0" gradientUnits="userSpaceOnUse" gradientTransform="matrix(1,0,0,-1,0,0.0997309)"><stop offset="0" style="stop-color:rgb(11,21,33);stop-opacity:1"/><stop offset="1" style="stop-color:rgb(0,171,163);stop-opacity:1"/></linearGradient>
        <linearGradient id="_Linear4" x1="0" y1="0" x2="1" y2="0" gradientUnits="userSpaceOnUse" gradientTransform="matrix(1,0,0,-1,0,0.0989214)"><stop offset="0" style="stop-color:rgb(11,21,33);stop-opacity:1"/><stop offset="1" style="stop-color:rgb(0,171,163);stop-opacity:1"/></linearGradient>
        <linearGradient id="_Linear5" x1="0" y1="0" x2="1" y2="0" gradientUnits="userSpaceOnUse" gradientTransform="matrix(1,0,0,-1,0,0.0997309)"><stop offset="0" style="stop-color:rgb(11,21,33);stop-opacity:1"/><stop offset="1" style="stop-color:rgb(0,171,163);stop-opacity:1"/></linearGradient>
        <linearGradient id="_Linear6" x1="0" y1="0" x2="1" y2="0" gradientUnits="userSpaceOnUse" gradientTransform="matrix(1,0,0,-1,0,0.0989214)"><stop offset="0" style="stop-color:rgb(11,21,33);stop-opacity:1"/><stop offset="1" style="stop-color:rgb(0,171,163);stop-opacity:1"/></linearGradient>
    </defs>
</svg>
