<?xml version="1.0" encoding="UTF-8" standalone="no"?>
<!DOCTYPE svg PUBLIC "-//W3C//DTD SVG 1.1//EN" "http://www.w3.org/Graphics/SVG/1.1/DTD/svg11.dtd">
<svg width="100%" height="100%" viewBox="0 0 52 63" version="1.1" xmlns="http://www.w3.org/2000/svg" xmlns:xlink="http://www.w3.org/1999/xlink" xml:space="preserve" xmlns:serif="http://www.serif.com/" style="fill-rule:evenodd;clip-rule:evenodd;stroke-linejoin:round;stroke-miterlimit:1.41421;">
    <g transform="matrix(1,0,0,1,-1708.57,-669.229)">
        <g transform="matrix(1,0,0,1,1720.21,676.923)">
            <path d="M0,35.809L0,6.296C0,-1.399 6.295,-7.694 13.989,-7.694C21.684,-7.694 27.979,-1.399 27.979,6.296L27.979,35.809C27.979,43.503 0,43.503 0,35.809" style="fill:rgb(32,164,157);fill-rule:nonzero;"/>
        </g>
        <g transform="matrix(1,0,0,1,1734.2,673.029)">
            <path d="M0,29.517C-6.118,29.517 -11.125,24.511 -11.125,18.392L-11.125,11.125C-11.125,5.007 -6.118,0 0,0C6.119,0 11.125,5.007 11.125,11.125L11.125,18.392C11.125,24.511 6.119,29.517 0,29.517" style="fill:rgb(243,242,241);fill-rule:nonzero;"/>
        </g>
        <g transform="matrix(-1,-0,-0,1,3469.67,319.958)">
            <rect x="1728.94" y="374.121" width="11.799" height="11.8" style="fill:rgb(243,242,241);"/>
        </g>
        <g transform="matrix(1,0,0,1,1745.93,668.34)">
            <path d="M0,15.814C0,10.921 -0.728,7.877 -3.436,4.579C-6.849,0.423 -14.961,0 -19.888,5.24C-22.787,8.323 -22.962,10.417 -22.962,15.814C-19.833,15.814 -14.108,14.707 -11.733,8.284C-9.484,14.928 -6.461,15.814 0,15.814" style="fill:rgb(32,164,157);fill-rule:nonzero;"/>
        </g>
        <g transform="matrix(1,0,0,1,1759.83,704.546)">
            <path d="M0,27L-51.253,27L-51.253,14.031C-51.253,6.314 -44.939,0 -37.223,0L-14.031,0C-6.314,0 0,6.314 0,14.031L0,27Z" style="fill:rgb(63,63,63);fill-rule:nonzero;"/>
        </g>
        <g transform="matrix(1,0,0,1,1716.84,717.618)">
            <path d="M0,13.928L0,1.764C0,0.79 0.79,0 1.764,0C2.738,0 3.528,0.79 3.528,1.764L3.528,13.928L0,13.928Z" style="fill:rgb(243,242,241);fill-rule:nonzero;"/>
        </g>
        <g transform="matrix(1,0,0,1,1748.03,717.618)">
            <path d="M0,13.928L0,1.764C0,0.79 0.79,0 1.764,0C2.737,0 3.527,0.79 3.527,1.764L3.527,13.928L0,13.928Z" style="fill:rgb(243,242,241);fill-rule:nonzero;"/>
        </g>
        <g transform="matrix(1,0,0,1,1746.16,715.183)">
            <path d="M0,-10.637C-6.218,0 -17.7,0 -23.918,-10.637L0,-10.637Z" style="fill:rgb(243,242,241);fill-rule:nonzero;"/>
        </g>
    </g>
</svg>
